<svg width="319" height="202" viewBox="0 0 319 202" fill="none" xmlns="http://www.w3.org/2000/svg">
<path d="M50 2.5H269C295.234 2.5 316.5 23.7665 316.5 50V199.5H2.5V50C2.5 23.7665 23.7665 2.5 50 2.5Z" stroke="black" stroke-width="5"/>
<path d="M45 2.5H274C296.633 2.5 315.134 20.1916 316.428 42.5H2.57231C3.86635 20.1916 22.3671 2.5 45 2.5Z" fill="black" stroke="black" stroke-width="5"/>
<path d="M15.6364 110V63.4545H31.3636C35.0152 63.4545 38 64.1136 40.3182 65.4318C42.6515 66.7348 44.3788 68.5 45.5 70.7273C46.6212 72.9545 47.1818 75.4394 47.1818 78.1818C47.1818 80.9242 46.6212 83.4167 45.5 85.6591C44.3939 87.9015 42.6818 89.6894 40.3636 91.0227C38.0455 92.3409 35.0758 93 31.4545 93H20.1818V88H31.2727C33.7727 88 35.7803 87.5682 37.2955 86.7045C38.8106 85.8409 39.9091 84.6742 40.5909 83.2045C41.2879 81.7197 41.6364 80.0455 41.6364 78.1818C41.6364 76.3182 41.2879 74.6515 40.5909 73.1818C39.9091 71.7121 38.803 70.5606 37.2727 69.7273C35.7424 68.8788 33.7121 68.4545 31.1818 68.4545H21.2727V110H15.6364ZM56.2614 110V63.4545H71.9886C75.625 63.4545 78.6098 64.0758 80.9432 65.3182C83.2765 66.5455 85.0038 68.2348 86.125 70.3864C87.2462 72.5379 87.8068 74.9848 87.8068 77.7273C87.8068 80.4697 87.2462 82.9015 86.125 85.0227C85.0038 87.1439 83.2841 88.8106 80.9659 90.0227C78.6477 91.2197 75.6856 91.8182 72.0795 91.8182H59.3523V86.7273H71.8977C74.3826 86.7273 76.3826 86.3636 77.8977 85.6364C79.428 84.9091 80.5341 83.8788 81.2159 82.5455C81.9129 81.197 82.2614 79.5909 82.2614 77.7273C82.2614 75.8636 81.9129 74.2348 81.2159 72.8409C80.5189 71.447 79.4053 70.3712 77.875 69.6136C76.3447 68.8409 74.322 68.4545 71.8068 68.4545H61.8977V110H56.2614ZM78.1705 89.0909L89.625 110H83.0795L71.8068 89.0909H78.1705ZM136.472 86.7273C136.472 91.6364 135.585 95.8788 133.812 99.4545C132.04 103.03 129.608 105.788 126.517 107.727C123.426 109.667 119.896 110.636 115.926 110.636C111.956 110.636 108.426 109.667 105.335 107.727C102.244 105.788 99.8125 103.03 98.0398 99.4545C96.267 95.8788 95.3807 91.6364 95.3807 86.7273C95.3807 81.8182 96.267 77.5758 98.0398 74C99.8125 70.4242 102.244 67.6667 105.335 65.7273C108.426 63.7879 111.956 62.8182 115.926 62.8182C119.896 62.8182 123.426 63.7879 126.517 65.7273C129.608 67.6667 132.04 70.4242 133.812 74C135.585 77.5758 136.472 81.8182 136.472 86.7273ZM131.017 86.7273C131.017 82.697 130.343 79.2955 128.994 76.5227C127.661 73.75 125.85 71.6515 123.562 70.2273C121.29 68.803 118.744 68.0909 115.926 68.0909C113.108 68.0909 110.555 68.803 108.267 70.2273C105.994 71.6515 104.184 73.75 102.835 76.5227C101.502 79.2955 100.835 82.697 100.835 86.7273C100.835 90.7576 101.502 94.1591 102.835 96.9318C104.184 99.7045 105.994 101.803 108.267 103.227C110.555 104.652 113.108 105.364 115.926 105.364C118.744 105.364 121.29 104.652 123.562 103.227C125.85 101.803 127.661 99.7045 128.994 96.9318C130.343 94.1591 131.017 90.7576 131.017 86.7273ZM163.767 63.4545H169.403V96.7273C169.403 99.697 168.858 102.22 167.767 104.295C166.676 106.371 165.138 107.947 163.153 109.023C161.169 110.098 158.828 110.636 156.131 110.636C153.585 110.636 151.32 110.174 149.335 109.25C147.35 108.311 145.79 106.977 144.653 105.25C143.517 103.523 142.949 101.47 142.949 99.0909H148.494C148.494 100.409 148.82 101.561 149.472 102.545C150.138 103.515 151.047 104.273 152.199 104.818C153.35 105.364 154.661 105.636 156.131 105.636C157.752 105.636 159.131 105.295 160.267 104.614C161.403 103.932 162.267 102.932 162.858 101.614C163.464 100.28 163.767 98.6515 163.767 96.7273V63.4545ZM180.699 110V63.4545H208.79V68.4545H186.335V84.1818H207.335V89.1818H186.335V105H209.153V110H180.699ZM256.403 78H250.767C250.434 76.3788 249.85 74.9545 249.017 73.7273C248.199 72.5 247.199 71.4697 246.017 70.6364C244.85 69.7879 243.555 69.1515 242.131 68.7273C240.706 68.303 239.222 68.0909 237.676 68.0909C234.858 68.0909 232.305 68.803 230.017 70.2273C227.744 71.6515 225.934 73.75 224.585 76.5227C223.252 79.2955 222.585 82.697 222.585 86.7273C222.585 90.7576 223.252 94.1591 224.585 96.9318C225.934 99.7045 227.744 101.803 230.017 103.227C232.305 104.652 234.858 105.364 237.676 105.364C239.222 105.364 240.706 105.152 242.131 104.727C243.555 104.303 244.85 103.674 246.017 102.841C247.199 101.992 248.199 100.955 249.017 99.7273C249.85 98.4848 250.434 97.0606 250.767 95.4545H256.403C255.979 97.8333 255.206 99.9621 254.085 101.841C252.964 103.72 251.57 105.318 249.903 106.636C248.237 107.939 246.366 108.932 244.29 109.614C242.229 110.295 240.025 110.636 237.676 110.636C233.706 110.636 230.176 109.667 227.085 107.727C223.994 105.788 221.563 103.03 219.79 99.4545C218.017 95.8788 217.131 91.6364 217.131 86.7273C217.131 81.8182 218.017 77.5758 219.79 74C221.563 70.4242 223.994 67.6667 227.085 65.7273C230.176 63.7879 233.706 62.8182 237.676 62.8182C240.025 62.8182 242.229 63.1591 244.29 63.8409C246.366 64.5227 248.237 65.5227 249.903 66.8409C251.57 68.1439 252.964 69.7348 254.085 71.6136C255.206 73.4773 255.979 75.6061 256.403 78ZM262.966 68.4545V63.4545H297.875V68.4545H283.239V110H277.602V68.4545H262.966ZM15.6364 187V140.455H31.3636C35.0152 140.455 38 141.114 40.3182 142.432C42.6515 143.735 44.3788 145.5 45.5 147.727C46.6212 149.955 47.1818 152.439 47.1818 155.182C47.1818 157.924 46.6212 160.417 45.5 162.659C44.3939 164.902 42.6818 166.689 40.3636 168.023C38.0455 169.341 35.0758 170 31.4545 170H20.1818V165H31.2727C33.7727 165 35.7803 164.568 37.2955 163.705C38.8106 162.841 39.9091 161.674 40.5909 160.205C41.2879 158.72 41.6364 157.045 41.6364 155.182C41.6364 153.318 41.2879 151.652 40.5909 150.182C39.9091 148.712 38.803 147.561 37.2727 146.727C35.7424 145.879 33.7121 145.455 31.1818 145.455H21.2727V187H15.6364ZM56.2614 187V140.455H61.8977V182H83.5341V187H56.2614ZM97.108 187H91.1989L108.29 140.455H114.108L131.199 187H125.29L111.381 147.818H111.017L97.108 187ZM99.2898 168.818H123.108V173.818H99.2898V168.818ZM175.358 140.455V187H169.903L144.54 150.455H144.085V187H138.449V140.455H143.903L169.358 177.091H169.812V140.455H175.358ZM223.545 140.455V187H218.091L192.727 150.455H192.273V187H186.636V140.455H192.091L217.545 177.091H218V140.455H223.545ZM234.824 187V140.455H262.915V145.455H240.46V161.182H261.46V166.182H240.46V182H263.278V187H234.824ZM273.074 187V140.455H288.801C292.438 140.455 295.422 141.076 297.756 142.318C300.089 143.545 301.816 145.235 302.938 147.386C304.059 149.538 304.619 151.985 304.619 154.727C304.619 157.47 304.059 159.902 302.938 162.023C301.816 164.144 300.097 165.811 297.778 167.023C295.46 168.22 292.498 168.818 288.892 168.818H276.165V163.727H288.71C291.195 163.727 293.195 163.364 294.71 162.636C296.241 161.909 297.347 160.879 298.028 159.545C298.725 158.197 299.074 156.591 299.074 154.727C299.074 152.864 298.725 151.235 298.028 149.841C297.331 148.447 296.218 147.371 294.688 146.614C293.157 145.841 291.134 145.455 288.619 145.455H278.71V187H273.074ZM294.983 166.091L306.438 187H299.892L288.619 166.091H294.983Z" fill="black"/>
</svg>
