<svg width="51" height="51" viewBox="0 0 51 51" fill="none" xmlns="http://www.w3.org/2000/svg">
<path d="M45.985 27.625C45.6783 27.3715 45.3065 27.2091 44.912 27.1565C44.5176 27.1039 44.1163 27.1632 43.7538 27.3275C41.5068 28.3558 39.0636 28.885 36.5925 28.8788C32.0214 28.8732 27.6377 27.0607 24.3975 23.8363C21.1572 20.612 19.3231 16.2374 19.295 11.6663C19.3047 10.2336 19.483 8.80716 19.8263 7.41625C19.8991 7.04552 19.8718 6.66207 19.7471 6.30542C19.6225 5.94876 19.405 5.63179 19.1171 5.38716C18.8291 5.14253 18.4812 4.97908 18.1091 4.91367C17.737 4.84826 17.3541 4.88323 17 5.015C13.6687 6.51293 10.7729 8.83312 8.58453 11.7576C6.39618 14.6821 4.98716 18.1148 4.48985 21.7334C3.99253 25.352 4.42324 29.0376 5.74152 32.444C7.05979 35.8504 9.22236 38.8658 12.0261 41.2069C14.8298 43.548 18.1826 45.1379 21.7695 45.8274C25.3564 46.5168 29.0597 46.2831 32.5316 45.1482C36.0034 44.0134 39.1297 42.0146 41.6169 39.3396C44.1041 36.6647 45.8704 33.4013 46.75 29.8563C46.8572 29.4504 46.8417 29.0218 46.7055 28.6247C46.5694 28.2276 46.3187 27.8798 45.985 27.625V27.625ZM25.7975 41.8413C22.2313 41.8161 18.76 40.6892 15.8589 38.6149C12.9578 36.5406 10.7688 33.6204 9.59162 30.2539C8.41441 26.8874 8.30653 23.2394 9.28277 19.8093C10.259 16.3791 12.2716 13.3346 15.045 11.0925V11.6663C15.0507 17.3793 17.3227 22.8567 21.3624 26.8964C25.4021 30.9361 30.8795 33.2081 36.5925 33.2138C38.0925 33.2193 39.5887 33.0625 41.055 32.7463C39.5886 35.5205 37.3925 37.8417 34.7037 39.4594C32.015 41.0772 28.9355 41.9301 25.7975 41.9262V41.8413Z" fill="black"/>
</svg>
